<svg width="13" height="13" viewBox="0 0 13 13" fill="none" xmlns="http://www.w3.org/2000/svg">
<path d="M1.91667 12.825C1.59583 12.825 1.32108 12.7108 1.09242 12.4826C0.863751 12.2543 0.749612 11.9795 0.750001 11.6583V3.49163C0.750001 3.1708 0.864334 2.89605 1.093 2.66738C1.32167 2.43872 1.59622 2.32458 1.91667 2.32497H7.12292L5.95625 3.49163H1.91667V11.6583H10.0833V7.60413L11.25 6.43747V11.6583C11.25 11.9791 11.1357 12.2539 10.907 12.4826C10.6783 12.7112 10.4038 12.8254 10.0833 12.825H1.91667ZM8.43542 2.66038L9.26667 3.47705L5.41667 7.32705V8.1583H6.23333L10.0979 4.29372L10.9292 5.11038L7.06458 8.97497C6.95764 9.08191 6.83358 9.16708 6.69242 9.23047C6.55125 9.29386 6.40308 9.32536 6.24792 9.32497H4.83333C4.66806 9.32497 4.52942 9.26897 4.41742 9.15697C4.30542 9.04497 4.24961 8.90652 4.25 8.74163V7.32705C4.25 7.17149 4.27917 7.02313 4.3375 6.88197C4.39583 6.7408 4.47847 6.61694 4.58542 6.51038L8.43542 2.66038ZM10.9292 5.11038L8.43542 2.66038L9.89375 1.20205C10.1271 0.968718 10.4067 0.852051 10.7326 0.852051C11.0585 0.852051 11.333 0.968718 11.5563 1.20205L12.3729 2.0333C12.5965 2.25691 12.7083 2.52913 12.7083 2.84997C12.7083 3.1708 12.5965 3.44302 12.3729 3.66663L10.9292 5.11038Z" fill="#FAC213"/>
</svg>
