<svg width="12" height="12" viewBox="0 0 12 12" fill="none" xmlns="http://www.w3.org/2000/svg">
<path d="M1.50004 11.8333C1.17921 11.8333 0.904458 11.719 0.675792 11.4903C0.447125 11.2617 0.332986 10.9871 0.333375 10.6667V1.33333C0.333375 1.0125 0.447708 0.737748 0.676375 0.509082C0.905042 0.280415 1.1796 0.166276 1.50004 0.166665H6.16671L9.66671 3.66667V6H8.50004V4.25H5.58337V1.33333H1.50004V10.6667H5.00004V11.8333H1.50004ZM8.67504 7.47291L9.30212 8.1L7.04171 10.3458V10.9583H7.65421L9.91462 8.7125L10.5271 9.325L8.01879 11.8333H6.16671V9.98125L8.67504 7.47291ZM10.5271 9.325L8.67504 7.47291L9.52087 6.62708C9.62782 6.52014 9.76393 6.46667 9.92921 6.46667C10.0945 6.46667 10.2306 6.52014 10.3375 6.62708L11.373 7.6625C11.4799 7.76944 11.5334 7.90555 11.5334 8.07083C11.5334 8.23611 11.4799 8.37222 11.373 8.47916L10.5271 9.325Z" fill="#51CFFF"/>
</svg>
